<?xml version="1.0" encoding="UTF-8"?>
<!DOCTYPE svg PUBLIC "-//W3C//DTD SVG 1.1//EN" "http://www.w3.org/Graphics/SVG/1.1/DTD/svg11.dtd">
<!-- Creator: CorelDRAW 2019 (64-Bit) -->
<svg xmlns="http://www.w3.org/2000/svg" xml:space="preserve" width="334.774mm" height="63.1772mm" version="1.1" style="shape-rendering:geometricPrecision; text-rendering:geometricPrecision; image-rendering:optimizeQuality; fill-rule:evenodd; clip-rule:evenodd" viewBox="0 0 44595.53 8415.9" xmlns:xlink="http://www.w3.org/1999/xlink" xmlns:xodm="http://www.corel.com/coreldraw/odm/2003">
 <defs>
  <style type="text/css">
   <![CDATA[
    .fil1 {fill:#0A1388}
    .fil0 {fill:#C6012D}
    .fil2 {fill:#0A1388}
    .fil3 {fill:#C6012D;fill-rule:nonzero}
    .fil4 {fill:#0A1388;fill-rule:nonzero}
   ]]>
  </style>
 </defs>
 <g id="Capa_x0020_1">
  <metadata id="CorelCorpID_0Corel-Layer"/>
  <g id="_3088615996336">
   <path class="fil0" d="M7847.16 3868.52c537.81,824.23 488.62,1936.53 -190.16,2714.89 -678.79,778.35 -1774.06,978.41 -2663.78,557.71 838.88,121.32 1720.26,-172.22 2318.8,-858.56 598.53,-686.36 769.44,-1599.47 535.14,-2414.05z"/>
   <path class="fil1" d="M7321.67 3905c445.46,682.67 404.71,1603.94 -157.5,2248.63 -562.22,644.69 -1469.38,810.39 -2206.31,461.94 694.82,100.48 1424.83,-142.64 1920.57,-711.12 495.76,-568.46 637.31,-1324.77 443.23,-1999.44z"/>
   <path class="fil0" d="M6842.51 4013.4c347.21,532.1 315.46,1250.17 -122.75,1752.67 -438.21,502.49 -1145.3,631.65 -1719.69,360.04 541.57,78.33 1110.57,-111.18 1496.97,-554.26 386.41,-443.09 496.74,-1032.59 345.47,-1558.45z"/>
   <path class="fil2" d="M4713.45 4442.95c-112.72,-5.4 -186.32,-33.65 -264.04,-83.38l-88.33 -64.53 -969.2 -726.17c-21.54,-35.67 -37.53,-80.35 -44.45,-138.98 -29.92,-252.14 63.18,-395.01 230.06,-461.15 74.77,-29.68 156.18,-28.19 239.65,-8.22l568.33 286.35c24.48,13.39 47.88,25.32 69.98,35.26l243.04 122.46c97.28,61.3 262.95,124.22 328.37,191.7 88.24,90.98 110.31,249.89 80.55,386.53 449.47,-407.63 968.1,-554.84 1235.63,-323.29 6.09,5.28 11.98,10.75 17.7,16.27 -7.58,310.9 -217.12,763.31 -574.57,1191.63l145.19 125.63c27.15,23.51 30.13,64.97 6.62,92.14l0 0c-23.5,27.16 -64.97,30.16 -92.09,6.63l-145.21 -125.63c-372.6,415.14 -790.29,687.42 -1096.9,739.48 -6.33,-4.89 -12.5,-9.91 -18.61,-15.21 -263.69,-228.27 -198.2,-750.72 128.3,-1247.52zm-438.56 -38.23c-117.2,131.23 -298.73,271.11 -388.43,361.67l-753.61 706.87 -793.26 -830.93 -19.08 -23.3 870.32 -647.51c91.61,-62.34 170.62,-125.86 255.51,-187.55l828.55 620.75zm-3.88 -1361.03c123.86,-105.61 361.6,-276.91 435.73,-334.83l391.07 -303.52 7.61 -6.45 871.45 185.15c-24.55,43.49 -57.32,70.6 -115.57,128.3 -141.07,139.71 -266.52,266.37 -406.91,406.8 -37.53,37.55 -60.6,62.8 -98.83,99.66 -48.96,47.09 -71.55,54 -119.73,98.55 -44.08,40.78 -98.42,90.6 -143.75,140.03l-821.07 -413.69zm946.12 -742.04l155.26 -495c42.92,-135.21 115.03,-382.74 176.28,-498.53l0.05 0c131.64,0.03 602.31,90.13 694.58,138.94l-221.82 1008.65 -3.98 16.01 -800.36 -170.07z"/>
   <path class="fil2" d="M3027.41 5564.77c-205.68,91.28 -967.5,352.97 -1235.41,461.22 -90.82,36.7 -90.36,45.36 -212.67,45.36l-714.73 -873c-54.42,-67.55 -76.78,-54.63 -79.1,-159.05 153.55,-81.25 1253.68,-293.81 1402.1,-354.17l66.39 69.56c24.74,27.6 54.2,58.56 84.56,88.53l688.86 721.55z"/>
   <path class="fil1" d="M1001.03 1483.7c1504.57,-1771.13 4160.09,-1987.24 5931.2,-482.68 917.84,779.66 1417.86,1868.33 1477.4,2982.88l-49.69 11.68c-92.94,-974.27 -550.76,-1914.7 -1355.6,-2598.4 -1639.6,-1392.83 -4097.89,-1192.77 -5490.72,446.84 -1392.88,1639.61 -1192.8,4097.88 446.83,5490.75 1189.43,1010.42 2809.55,1182.31 4141.35,574.74l12.03 51.11c-1466.56,744.02 -3298.35,585.68 -4630.14,-545.67 -1771.15,-1504.57 -1987.26,-4160.1 -482.66,-5931.25z"/>
   <path class="fil3" d="M13255.98 5374.32c-77.28,0 -108.39,-38.63 -93.3,-115.95l212.27 -1086.64 -1423.47 1086.64c-50.74,40.08 -100.85,69.42 -150.29,88.03 -49.47,18.62 -95.69,27.92 -138.62,27.92l-249.12 0c-42.93,0 -87.64,-9.3 -134.1,-27.92 -46.5,-18.61 -90.16,-47.94 -131,-88.03l-1144.92 -1086.64 -212.27 1086.64c-15.09,77.32 -61.33,115.95 -138.61,115.95l-399.46 0c-77.28,0 -108.39,-38.63 -93.3,-115.95l527.74 -2701.55c14.53,-74.43 60.49,-111.66 137.75,-111.66l369.38 0c94.49,0 178.86,37.23 253.07,111.66l1658.6 1821.09 2507.5 -1821.09c53.64,-40.08 107.93,-68.68 162.8,-85.85 54.92,-17.22 109.54,-25.8 163.94,-25.8l309.22 0c77.33,0 108.69,37.23 94.15,111.66l-527.74 2701.55c-15.09,77.32 -61.29,115.95 -138.61,115.95l-1421.63 0z"/>
   <path class="fil3" d="M17766.33 4030.02c-77.32,0 -108.69,-37.25 -94.15,-111.67l54.54 -279.17c14.53,-74.46 60.44,-111.66 137.75,-111.66l2053.01 0c74.43,0 106.65,25.75 96.56,77.28l-67.96 347.89c-10.07,51.57 -52.33,77.33 -126.75,77.33l-2053 0zm-1181.77 1344.3c-203.27,0 -383.7,-36.5 -541.22,-109.53 -157.52,-72.99 -286.58,-174.65 -387.1,-304.93 -100.52,-130.28 -168.41,-284.87 -203.6,-463.87 -35.19,-178.94 -32.09,-374.34 9.31,-586.22 40.84,-209.05 112.38,-403.04 214.6,-581.99 102.23,-178.94 227.79,-334.31 376.68,-465.99 148.81,-131.72 316.96,-234.08 504.5,-307.1 187.45,-73.01 387.14,-109.53 599.02,-109.53l3002.19 0c77.32,0 108.69,37.23 94.15,111.66l-53.68 274.88c-15.13,77.32 -61.3,116 -138.62,116l-1997.14 0c-94.5,0 -175.89,9.99 -244.24,30.05 -68.35,20.02 -127.6,55.8 -177.76,107.37 -50.15,51.55 -92.2,120.24 -126.15,206.14 -33.97,85.91 -63.81,194.71 -89.56,326.45l-91.44 468.14c-28.52,146.01 -42.59,269.15 -42.08,369.33 0.43,100.23 15.56,180.39 45.32,240.54 29.8,60.14 73.53,103.8 131.21,131 57.68,27.2 130.87,40.8 219.63,40.8l2010.02 0c77.32,0 108.43,38.64 93.34,115.96l-53.72 274.88c-15.09,77.32 -61.29,115.95 -138.61,115.95l-3015.06 0z"/>
   <path class="fil3" d="M21334.76 5374.32c-54.4,0 -77.96,-18.61 -70.68,-55.84l463.13 -2370.77 -1254.12 0c-54.4,0 -78.54,-15.77 -72.39,-47.26l78.05 -399.43c7.26,-37.23 38.09,-55.84 92.49,-55.84l4213.33 0c54.4,0 78,18.61 70.72,55.84l-78.04 399.43c-6.17,31.49 -36.43,47.26 -90.84,47.26l-1258.4 0 -463.15 2370.77c-7.26,37.23 -36.67,55.84 -88.24,55.84l-1541.88 0z"/>
   <path class="fil3" d="M26880.21 4030.02c-77.32,0 -108.69,-37.25 -94.14,-111.67l54.54 -279.17c14.53,-74.46 60.44,-111.66 137.75,-111.66l2053 0c74.44,0 106.65,25.75 96.58,77.28l-67.96 347.89c-10.07,51.57 -52.33,77.33 -126.75,77.33l-2053.01 0zm-1181.77 1344.3c-203.25,0 -383.69,-36.5 -541.22,-109.53 -157.52,-72.99 -286.56,-174.65 -387.08,-304.93 -100.53,-130.28 -168.41,-284.87 -203.6,-463.87 -35.19,-178.94 -32.09,-374.34 9.3,-586.22 40.86,-209.05 112.39,-403.04 214.62,-581.99 102.23,-178.94 227.78,-334.31 376.68,-465.99 148.81,-131.72 316.96,-234.08 504.5,-307.1 187.44,-73.01 387.14,-109.53 599.02,-109.53l3002.18 0c77.33,0 108.69,37.23 94.15,111.66l-53.68 274.88c-15.13,77.32 -61.29,116 -138.61,116l-1997.15 0c-94.49,0 -175.88,9.99 -244.23,30.05 -68.35,20.02 -127.6,55.8 -177.76,107.37 -50.15,51.55 -92.2,120.24 -126.16,206.14 -33.96,85.91 -63.79,194.71 -89.56,326.45l-91.42 468.14c-28.52,146.01 -42.59,269.15 -42.08,369.33 0.43,100.23 15.56,180.39 45.31,240.54 29.8,60.14 73.53,103.8 131.21,131 57.68,27.2 130.88,40.8 219.63,40.8l2010.03 0c77.32,0 108.43,38.64 93.34,115.96l-53.72 274.88c-15.09,77.32 -61.29,115.95 -138.61,115.95l-3015.07 0z"/>
   <path class="fil4" d="M30560.31 5374.32c-208.99,0 -392.87,-37.23 -551.51,-111.66 -158.71,-74.46 -287.46,-177.54 -386.29,-309.22 -98.82,-131.72 -165.13,-287.08 -198.88,-466.03 -33.74,-178.94 -30.47,-371.5 9.78,-577.64 41.4,-211.9 113.2,-407.33 215.47,-586.28 102.23,-178.96 227.66,-333.59 376.21,-463.87 148.54,-130.27 317.3,-231.91 506.23,-304.93 188.93,-73.01 389.35,-109.53 601.19,-109.53l2104.52 0c214.78,0 401.5,37.23 560.18,111.66 158.71,74.46 287.54,176.82 386.71,307.1 99.07,130.28 164.78,284.91 197.14,463.85 32.34,178.94 28.05,372.94 -12.8,581.99 -40.24,206.14 -112.22,398.7 -215.92,577.64 -103.62,178.94 -230.51,333.57 -380.46,463.85 -150.05,130.28 -319.04,233.36 -507.13,309.22 -188,75.88 -388.03,113.83 -599.92,113.83l-2104.52 0zm2151.32 -1756.6c25.76,-131.73 38.43,-240.54 38.05,-326.45 -0.39,-85.91 -15.64,-154.59 -45.65,-206.14 -30.01,-51.57 -75.24,-87.35 -135.76,-107.37 -60.53,-20.06 -138.02,-30.05 -232.51,-30.05l-584.1 0c-85.91,0 -160.33,10.71 -223.2,32.17 -62.92,21.51 -118.72,58.03 -167.43,109.54 -48.76,51.55 -90.06,120.25 -124.03,206.14 -33.96,85.91 -63.5,193.28 -88.71,322.16l-91.44 468.14c-56.48,289.16 -58.09,491.75 -4.89,607.7 53.22,116 161.4,173.97 324.62,173.97l584.1 0c88.75,0 167.3,-13.6 235.61,-40.8 68.3,-27.2 129.12,-70.85 182.38,-131 53.22,-60.14 99.72,-140.31 139.34,-240.54 39.62,-100.17 73.67,-223.32 102.19,-369.33l91.42 -468.14z"/>
   <path class="fil4" d="M38072.17 5374.32c-114.51,0 -201.43,-38.63 -260.81,-115.95l-1033.46 -1327.14c-18.45,-22.91 -32.01,-45.09 -40.72,-66.57 -8.67,-21.5 -9.1,-52.27 -1.28,-92.36l26.02 -133.13c14.53,-74.46 59.04,-111.66 133.46,-111.66l588.41 0c137.46,0 244.87,-25.8 322.18,-77.32 77.36,-51.57 125.01,-123.14 142.9,-214.74 37.5,-191.88 -79.78,-287.76 -351.81,-287.76l-957.77 0 -451.4 2310.67c-15.09,77.32 -61.29,115.95 -138.61,115.95l-1473.15 0c-77.32,0 -108.42,-38.63 -93.34,-115.95l527.74 -2701.55c14.55,-74.43 60.49,-111.66 137.81,-111.66l3753.77 0c128.83,0 245.63,17.89 350.32,53.68 104.65,35.78 191.32,86.63 260.09,152.46 68.74,65.89 117.07,144.6 144.99,236.25 27.92,91.64 30.94,193.26 9.14,304.93 -23.51,120.24 -66.82,228.34 -129.93,324.26 -63.09,95.94 -139.3,178.24 -228.64,246.96 -89.26,68.74 -188.93,124.54 -298.94,167.51 -110.09,42.93 -224.05,73.03 -341.91,90.2l947.96 1215.48c16.7,17.17 22.23,40.08 16.61,68.68 -3.36,17.17 -12.83,32.94 -28.52,47.26 -15.68,14.32 -36.42,21.46 -62.18,21.46l-1468.89 0z"/>
   <path class="fil4" d="M10092.78 6133.17l-914.84 0 -167.59 857.97 914.84 0 67.67 -346.38 -473.3 0 29.59 -151.41 668.05 0 -74.77 382.72c-21.13,108.18 -54.79,181.97 -100.61,221.37 -46.2,39.36 -122.45,58.87 -228.5,58.87l-755.63 0c-107.19,0 -175.8,-19.89 -205.85,-59.25 -30.35,-39.78 -34.81,-113.58 -13.81,-220.98l121.82 -623.59c20.99,-107.46 54.19,-180.86 100.05,-220.61 45.49,-39.39 121.82,-59.29 229.02,-59.29l755.63 0c104.9,0 172.87,19.13 204.61,57.77 31.37,38.2 37.41,107.78 17.69,208.74l-5.66 29.07 -202.45 39.36 34.05 -174.36zm1623.15 -6.89l-671.08 0 -80.67 412.94 671.12 0c47.9,0 82.5,-9.18 104.3,-27.92 21.77,-18.7 37.11,-50.85 46,-96.32l32.13 -164.41c8.89,-45.52 6.07,-77.61 -8.38,-96.35 -14.45,-18.76 -45.48,-27.93 -93.42,-27.93zm-1067.05 1030.03l231.27 -1183.73 942 0c87.6,0 147.14,17.98 178.52,54.32 31.37,36.3 39.23,94.83 23.47,175.47l-51.61 264.21c-15.64,79.91 -46.25,138.01 -91.81,174.36 -45.57,36.3 -112.14,54.27 -199.74,54.27l-747.29 0 -90.06 461.1 -194.75 0zm2862.64 -1023.14l-826.56 0 -64.51 330.35 735.98 0c104.17,0 171.67,19.52 202.61,58.11 30.9,39.02 35.7,112.8 14.59,220.98l-26.02 133.09c-21.34,109.31 -54.67,183.48 -99.97,222.13 -45.36,38.98 -120.89,58.48 -226.55,58.48l-682.04 0c-105.66,0 -173.97,-19.5 -204.75,-58.87 -30.44,-39.4 -35.23,-113.19 -14.03,-221.74l6.33 -32.52 189.45 -42.43 -37.19 190.39 869.62 0 69.46 -355.55 -733.77 0c-106.01,0 -173.93,-19.52 -203.99,-58.88 -29.76,-39.02 -34.22,-112.8 -13.01,-221.41l20.11 -102.81c21.13,-108.22 54.44,-182.01 99.38,-220.98 45.48,-39.4 121.01,-58.92 227.02,-58.92l622.02 0c104.18,0 172.15,19.13 204.24,57.77 32.18,38.2 38.68,105.49 19.85,201.85l-4.89 24.86 -176.98 48.17 33.62 -172.07zm2071.7 0l-199.86 1023.14 -194.71 0 199.86 -1023.14 -534.46 0 31.41 -160.59 1265.85 0 -31.37 160.59 -536.72 0zm1732.3 -6.89l-671.12 0 -81.1 415.23 671.08 0c48.66,0 83.6,-8.79 104.85,-26.78 21.26,-17.93 36.05,-49.3 44.81,-94.02l33.66 -172.44c8.75,-44.76 5.82,-76.09 -8.71,-94.45 -14.55,-18.37 -45.57,-27.55 -93.47,-27.55zm-1067.05 1030.03l231.23 -1183.73 942.04 0c87.56,0 147.1,17.98 178.48,54.32 31.41,36.3 39.23,94.83 23.46,175.47l-51.59 264.21c-15.6,79.91 -46.21,138.01 -91.81,174.36 -45.57,36.3 -112.14,54.27 -199.7,54.27l-171.72 0 443.63 461.1 -289.89 0 -385.47 -461.1 -343.87 0 -90.06 461.1 -194.71 0zm2049.43 -442.73l629.54 0 -197.22 -605.62 -432.32 605.62zm-510.32 442.73l869.5 -1183.73 209.07 0 418.3 1183.73 -214.74 0 -92.2 -291.33 -791.1 0 -206.37 291.33 -192.46 0zm3064.55 -1023.14l-810.71 0 -167.59 857.97 810.7 0 57.81 -295.93 186.68 41.28 -27.29 139.58c-21.29,108.94 -54.62,183.11 -99.63,222.13 -44.88,38.6 -120.41,58.11 -226.09,58.11l-654.84 0c-106.05,0 -174.69,-19.5 -205.54,-58.87 -30.48,-39.02 -35.33,-112.8 -14.12,-221.37l121.91 -623.97c21.03,-107.83 54.74,-181.62 100.43,-220.6 46.21,-39.4 122.5,-58.92 228.6,-58.92l654.79 0c105.68,0 173.6,19.52 203.39,58.15 29.8,38.98 34.22,112.78 13.01,221.37l-21.98 112.39 -201.99 37.1 52.46 -268.42zm508.91 1023.14l231.23 -1183.73 194.77 0 -99.12 507.39 828.29 -507.39 285.34 0 -958.03 566.64 819.67 617.09 -326.53 0 -676.98 -531.82 -103.92 531.82 -194.73 0zm1650.87 0l231.23 -1183.73 1125.49 0 -30.94 158.29 -930.73 0 -64.53 330.35 568.42 0 -30.48 155.99 -568.42 0 -73.48 376.21 939.79 0 -31.8 162.88 -1134.55 0zm2665.83 -1030.03l-671.12 0 -81.1 415.23 671.12 0c48.68,0 83.56,-8.79 104.82,-26.78 21.25,-17.93 36.09,-49.3 44.8,-94.02l33.7 -172.44c8.71,-44.76 5.78,-76.09 -8.75,-94.45 -14.53,-18.37 -45.57,-27.55 -93.47,-27.55zm-1067.05 1030.03l231.23 -1183.73 942.04 0c87.56,0 147.1,17.98 178.48,54.32 31.41,36.3 39.23,94.83 23.47,175.47l-51.61 264.21c-15.6,79.91 -46.2,138.01 -91.77,174.36 -45.61,36.3 -112.18,54.27 -199.74,54.27l-171.72 0 443.63 461.1 -289.84 0 -385.53 -461.1 -343.87 0 -90.06 461.1 -194.71 0z"/>
   <path class="fil3" d="M27183.61 7156.31l231.23 -1183.73 194.77 0 -199.02 1018.56 885.52 0 -32.26 165.17 -1080.24 0zm1649.93 -165.17l966.95 0 167.65 -857.97 -966.99 0 -167.61 857.97zm-50.33 -739.43c20.91,-107.06 54.16,-180.47 99.93,-219.84 45.82,-39.39 122.21,-59.29 229.02,-59.29l807.69 0c105.66,0 173.59,19.52 203.68,58.53 30.44,39.36 34.94,112.76 13.91,220.6l-121.9 623.99c-21.34,109.31 -54.71,183.48 -100.36,222.13 -45.36,38.98 -120.93,58.48 -226.55,58.48l-807.69 0c-106.86,0 -175.41,-19.89 -205.81,-59.63 -30.39,-39.4 -34.85,-113.2 -13.81,-220.98l121.9 -623.99zm2960.32 -118.54l-810.75 0 -167.59 857.97 810.7 0 57.81 -295.93 186.68 41.28 -27.24 139.58c-21.3,108.94 -54.62,183.11 -99.64,222.13 -44.88,38.6 -120.45,58.11 -226.07,58.11l-654.84 0c-106.09,0 -174.75,-19.5 -205.56,-58.87 -30.48,-39.02 -35.33,-112.8 -14.11,-221.37l121.86 -623.97c21.07,-107.83 54.75,-181.62 100.48,-220.6 46.2,-39.4 122.5,-58.92 228.55,-58.92l654.84 0c105.66,0 173.59,19.52 203.39,58.15 29.75,38.98 34.17,112.78 12.96,221.37l-21.94 112.39 -201.97 37.1 52.45 -268.42zm790.51 580.41l629.54 0 -197.22 -605.62 -432.32 605.62zm-510.32 442.73l869.44 -1183.73 209.13 0 418.3 1183.73 -214.78 0 -92.16 -291.33 -791.11 0 -206.36 291.33 -192.46 0zm2362.86 -1023.14l-199.86 1023.14 -194.75 0 199.9 -1023.14 -534.46 0 31.37 -160.59 1265.89 0 -31.37 160.59 -536.72 0zm876.42 857.97l966.95 0 167.59 -857.97 -966.95 0 -167.59 857.97zm-50.33 -739.43c20.91,-107.06 54.11,-180.47 99.88,-219.84 45.86,-39.39 122.21,-59.29 229.03,-59.29l807.67 0c105.68,0 173.6,19.52 203.73,58.53 30.39,39.36 34.94,112.76 13.85,220.6l-121.86 623.99c-21.38,109.31 -54.75,183.48 -100.4,222.13 -45.31,38.98 -120.88,58.48 -226.55,58.48l-807.69 0c-106.81,0 -175.41,-19.89 -205.76,-59.63 -30.4,-39.4 -34.9,-113.2 -13.81,-220.98l121.9 -623.99zm2837.82 -125.43l-671.08 0 -81.14 415.23 671.12 0c48.66,0 83.6,-8.79 104.85,-26.78 21.26,-17.93 36.05,-49.3 44.8,-94.02l33.68 -172.44c8.75,-44.76 5.82,-76.09 -8.73,-94.45 -14.53,-18.37 -45.56,-27.55 -93.5,-27.55zm-1067.06 1030.03l231.28 -1183.73 942.04 0c87.56,0 147.1,17.98 178.48,54.32 31.37,36.3 39.23,94.83 23.46,175.47l-51.59 264.21c-15.65,79.91 -46.25,138.01 -91.82,174.36 -45.56,36.3 -112.12,54.27 -199.72,54.27l-171.68 0 443.63 461.1 -289.89 0 -385.47 -461.1 -343.87 0 -90.06 461.1 -194.77 0z"/>
   <path class="fil4" d="M40753.31 5374.32c-208.99,0 -392.87,-37.23 -551.49,-111.66 -158.72,-74.46 -287.47,-177.54 -386.3,-309.22 -98.82,-131.72 -165.13,-287.08 -198.87,-466.03 -33.76,-178.94 -30.48,-371.5 9.76,-577.64l0.85 -4.3 1657.84 0 -35.25 180.39c-56.48,289.16 -58.09,491.75 -4.88,607.7 53.2,116 161.39,173.97 324.61,173.97l290.87 0 -87.09 506.79 -1020.05 0zm-1109.51 -1544.97c42.89,-181.17 108.86,-349.79 198.08,-505.86 102.23,-178.96 227.66,-333.59 376.21,-463.87 148.54,-130.27 317.3,-231.91 506.23,-304.93 188.93,-73.01 389.35,-109.53 601.19,-109.53l951.27 0 -86.37 502.54 -245.76 0c-85.91,0 -160.33,10.71 -223.2,32.17 -62.92,21.51 -118.72,58.03 -167.43,109.54 -48.76,51.55 -90.06,120.25 -124.03,206.14 -33.96,85.91 -63.5,193.28 -88.71,322.16l-41.32 211.63 -1656.17 0zm2710.22 -1384.18l1076.03 0c214.78,0 401.5,37.23 560.18,111.66 158.71,74.46 287.55,176.82 386.71,307.1 99.07,130.28 164.78,284.91 197.14,463.85 28.17,155.78 28.56,323 1.23,501.57l-1711.98 0 41.31 -211.63c25.76,-131.73 38.43,-240.54 38.05,-326.45 -0.39,-85.91 -15.64,-154.59 -45.65,-206.14 -30.01,-51.57 -75.24,-87.35 -135.76,-107.37 -60.53,-20.06 -138.02,-30.05 -232.51,-30.05l-261.11 0 86.36 -502.54zm2208.07 1460.3l-0.81 4.3c-40.24,206.14 -112.2,398.7 -215.92,577.64 -103.62,178.94 -230.51,333.57 -380.46,463.85 -150.05,130.28 -319.04,233.36 -507.13,309.22 -188,75.88 -388.03,113.83 -599.92,113.83l-1007.25 0 87.09 -506.79 216.02 0c88.75,0 167.3,-13.6 235.61,-40.8 68.3,-27.2 129.12,-70.85 182.39,-131 53.2,-60.14 99.71,-140.31 139.33,-240.54 39.62,-100.17 73.67,-223.32 102.19,-369.33l35.23 -180.39 1713.64 0z"/>
   <path class="fil0" d="M41392.34 4553.94c43.79,95.38 132.7,143.07 266.93,143.07l230.51 0 136.02 -791.54 -600.38 0 -29.04 148.73c-46.45,237.78 -47.81,404.4 -4.04,499.74zm574.67 143.07l172.61 0c72.97,0 137.59,-11.18 193.74,-33.58 56.19,-22.35 106.17,-58.23 150,-107.7 43.73,-49.49 81.99,-115.41 114.55,-197.83 32.61,-82.36 60.61,-183.62 84.03,-303.69l29.04 -148.73 -607.95 0 -136.02 791.54zm758.85 -867.66l31.28 -160.12c21.21,-108.35 31.62,-197.82 31.28,-268.46 -0.29,-70.64 -12.83,-127.14 -37.53,-169.51 -24.7,-42.43 -61.89,-71.84 -111.66,-88.33 -49.78,-16.49 -113.5,-24.7 -191.2,-24.7l-209.67 0 -122.25 711.12 609.75 0zm-564.73 -711.12l-193.4 0c-70.64,0 -131.85,8.81 -183.58,26.48 -51.73,17.69 -97.59,47.69 -137.67,90.08 -40.08,42.37 -74.04,98.86 -101.97,169.51 -27.92,70.64 -52.23,158.92 -72.97,264.93l-31.25 160.12 598.61 0 122.23 -711.12z"/>
  </g>
 </g>
</svg>